<svg width="30" height="30" fill="none" xmlns="http://www.w3.org/2000/svg"><circle cx="15" cy="15" r="15" fill="#962FBF"/><path d="M18.447 7.5h-6.894A4.058 4.058 0 007.5 11.553v6.894a4.058 4.058 0 004.053 4.053h6.894a4.058 4.058 0 004.053-4.053v-6.894A4.058 4.058 0 0018.447 7.5zm2.841 10.947a2.844 2.844 0 01-2.841 2.841h-6.894a2.844 2.844 0 01-2.841-2.841v-6.894a2.844 2.844 0 012.841-2.841h6.894a2.844 2.844 0 012.841 2.84v6.895z" fill="#fff"/><path d="M18.401 14.473a3.354 3.354 0 00-.953-1.893 3.371 3.371 0 00-2.884-.953 3.355 3.355 0 00-2.216 1.33 3.355 3.355 0 00-.629 2.507c.133.892.605 1.68 1.33 2.217a3.352 3.352 0 002.507.628 3.355 3.355 0 002.217-1.329c.537-.724.76-1.615.628-2.507zm-3.024 2.632a2.146 2.146 0 01-1.604-.401 2.146 2.146 0 01-.85-1.419c-.085-.57.058-1.14.402-1.604a2.147 2.147 0 012.052-.85c.948.14 1.68.872 1.82 1.82a2.163 2.163 0 01-1.82 2.454zm3.892-6.994a.613.613 0 00-1.039.43.612.612 0 00.608.609c.16 0 .317-.065.43-.178a.613.613 0 000-.86z" fill="#fff"/></svg>