<svg width="30" height="30" fill="none" xmlns="http://www.w3.org/2000/svg"><circle cx="15" cy="15" r="15" fill="#665CAC"/><path fill-rule="evenodd" clip-rule="evenodd" d="M15.59 11.834a.333.333 0 01.35-.316c.688.037 1.26.245 1.668.666.406.42.605 1.006.64 1.71a.333.333 0 11-.667.033c-.029-.604-.194-1.013-.451-1.28-.257-.264-.649-.432-1.226-.463a.333.333 0 01-.315-.35z" fill="#fff"/><path fill-rule="evenodd" clip-rule="evenodd" d="M15.08 10.04a.333.333 0 01.356-.308c1.402.1 2.528.582 3.349 1.475.815.888 1.2 1.99 1.17 3.284a.333.333 0 11-.666-.015c.026-1.14-.309-2.07-.995-2.819-.682-.743-1.636-1.17-2.905-1.26a.333.333 0 01-.309-.356z" fill="#fff"/><path fill-rule="evenodd" clip-rule="evenodd" d="M14.494 8.331A.333.333 0 0114.829 8c1.934.012 3.572.659 4.883 1.937 1.322 1.292 1.978 3.044 1.994 5.228a.333.333 0 11-.666.005c-.016-2.045-.625-3.614-1.793-4.756-1.18-1.15-2.649-1.736-4.422-1.748a.333.333 0 01-.331-.335z" fill="#fff"/><path d="M15.99 18.374s.47.04.719-.273l.49-.617c.237-.308.81-.502 1.371-.19.313.178.874.522 1.222.78.371.272 1.134.908 1.134.908.364.305.447.755.202 1.23 0 .004-.004.008-.004.008-.253.446-.593.87-1.024 1.26l-.008.009c-.351.292-.7.462-1.04.502a.617.617 0 01-.15.008c-.15 0-.296-.02-.442-.068l-.012-.015c-.526-.147-1.4-.518-2.858-1.32a16.832 16.832 0 01-2.4-1.586 12.718 12.718 0 01-1.114-.992l-.036-.036-.035-.035a12.718 12.718 0 01-.992-1.115 17.062 17.062 0 01-1.586-2.4c-.802-1.458-1.174-2.332-1.32-2.857l-.016-.012a1.31 1.31 0 01-.067-.443c-.004-.06 0-.11.008-.15.04-.34.21-.688.502-1.04l.008-.008c.391-.43.81-.77 1.26-1.024.005 0 .009-.003.009-.003.474-.246.925-.163 1.23.201.003.004.636.763.908 1.135.257.351.605.909.779 1.221.312.561.119 1.135-.19 1.372l-.616.49c-.313.253-.273.72-.273.72s.917 3.466 4.34 4.34z" fill="#fff"/></svg>