<svg width="30" height="30" viewBox="0 0 30 30" fill="none" xmlns="http://www.w3.org/2000/svg">
<circle cx="15" cy="15" r="15" fill="#962FBF"/>
<path d="M18.447 7.49988H11.553C9.31816 7.49988 7.5 9.31804 7.5 11.5528V18.4469C7.5 20.6817 9.31816 22.4999 11.553 22.4999H18.447C20.6818 22.4999 22.5 20.6817 22.5 18.4469V11.5528C22.5 9.31804 20.6818 7.49988 18.447 7.49988ZM21.2882 18.4469C21.2882 20.0135 20.0137 21.288 18.447 21.288H11.553C9.98637 21.288 8.71184 20.0135 8.71184 18.4469V11.5528C8.71184 9.98625 9.98634 8.71171 11.553 8.71171H18.447C20.0136 8.71171 21.2882 9.98622 21.2882 11.5528V18.4469Z" fill="white"/>
<path d="M18.4012 14.4729C18.2941 13.7508 17.9647 13.0963 17.4485 12.5801C16.9323 12.0639 16.2778 11.7344 15.5557 11.6274C15.2269 11.5786 14.8936 11.5786 14.5649 11.6274C13.6724 11.7597 12.885 12.2317 12.3476 12.9562C11.8101 13.6808 11.587 14.5714 11.7194 15.4637C11.8517 16.3561 12.3236 17.1436 13.0482 17.681C13.6365 18.1173 14.334 18.3464 15.0531 18.3464C15.2199 18.3464 15.3878 18.3341 15.5557 18.3092C16.4481 18.1769 17.2355 17.7049 17.773 16.9803C18.3104 16.2558 18.5336 15.3653 18.4012 14.4729ZM15.3772 17.1055C14.8064 17.1903 14.2367 17.0475 13.7731 16.7037C13.3096 16.3599 13.0077 15.8561 12.9231 15.2853C12.8384 14.7144 12.9811 14.1447 13.3249 13.6812C13.6688 13.2177 14.1725 12.9158 14.7434 12.8311C14.8485 12.8155 14.9544 12.8077 15.0603 12.8077C15.1661 12.8077 15.272 12.8155 15.3772 12.8311C16.3253 12.9717 17.0569 13.7032 17.1975 14.6514C17.3722 15.8298 16.5557 16.9308 15.3772 17.1055Z" fill="white"/>
<path d="M19.2687 10.1113C19.1554 9.99803 18.9985 9.93311 18.8384 9.93311C18.6783 9.93311 18.5215 9.998 18.4082 10.1113C18.2949 10.2246 18.23 10.3812 18.23 10.5416C18.23 10.7019 18.2949 10.8585 18.4082 10.9718C18.5215 11.0851 18.6783 11.15 18.8384 11.15C18.9985 11.15 19.1554 11.0851 19.2687 10.9718C19.382 10.8585 19.4469 10.7017 19.4469 10.5416C19.4469 10.3814 19.382 10.2246 19.2687 10.1113Z" fill="white"/>
</svg>
