<svg width="30" height="30" viewBox="0 0 30 30" fill="none" xmlns="http://www.w3.org/2000/svg">
<circle cx="15" cy="15" r="15" fill="#0088CC"/>
<path d="M6.76494 14.7622L10.2212 16.0522L11.5591 20.3546C11.6447 20.6301 11.9816 20.732 12.2053 20.5491L14.1319 18.9785C14.3338 18.814 14.6215 18.8058 14.8325 18.959L18.3074 21.4818C18.5467 21.6557 18.8856 21.5246 18.9456 21.2355L21.4912 8.99097C21.5567 8.67517 21.2464 8.41172 20.9457 8.52802L6.76089 14.0001C6.41084 14.1351 6.41389 14.6307 6.76494 14.7622ZM11.3435 15.3655L18.0984 11.2052C18.2198 11.1306 18.3447 11.2948 18.2404 11.3915L12.6657 16.5735C12.4697 16.7559 12.3433 17 12.3075 17.2649L12.1176 18.6722C12.0925 18.8601 11.8285 18.8788 11.7767 18.6969L11.0463 16.1307C10.9627 15.838 11.0846 15.5253 11.3435 15.3655Z" fill="white"/>
</svg>
