<svg width="30" height="30" viewBox="0 0 30 30" fill="none" xmlns="http://www.w3.org/2000/svg">
<circle cx="15" cy="15" r="15" fill="#665CAC"/>
<path fill-rule="evenodd" clip-rule="evenodd" d="M15.5893 11.8336C15.5991 11.6498 15.756 11.5088 15.9397 11.5185C16.6278 11.5551 17.2005 11.7627 17.6081 12.1838C18.0144 12.6033 18.213 13.1897 18.2471 13.8946C18.256 14.0784 18.1142 14.2346 17.9304 14.2435C17.7466 14.2524 17.5904 14.1106 17.5815 13.9268C17.5524 13.3233 17.3873 12.9135 17.1295 12.6473C16.8731 12.3825 16.4812 12.2146 15.9044 12.1839C15.7206 12.1742 15.5796 12.0173 15.5893 11.8336Z" fill="white"/>
<path fill-rule="evenodd" clip-rule="evenodd" d="M15.08 10.0409C15.093 9.85736 15.2523 9.71914 15.4359 9.73217C16.8383 9.83175 17.9644 10.3135 18.7845 11.2069C19.5998 12.0951 19.9846 13.1973 19.9552 14.4914C19.951 14.6754 19.7985 14.8211 19.6146 14.8169C19.4306 14.8128 19.2849 14.6603 19.2891 14.4763C19.315 13.3355 18.9804 12.4058 18.2936 11.6575C17.6116 10.9144 16.6584 10.487 15.3887 10.3968C15.2051 10.3838 15.0669 10.2244 15.08 10.0409Z" fill="white"/>
<path fill-rule="evenodd" clip-rule="evenodd" d="M14.4937 8.33103C14.4948 8.14703 14.6449 7.99883 14.8289 8.00001C16.763 8.01238 18.4009 8.65893 19.7119 9.93664L19.7123 9.93701C21.0338 11.2292 21.6897 12.9814 21.706 15.1653C21.7074 15.3493 21.5594 15.4996 21.3754 15.5009C21.1914 15.5023 21.0411 15.3543 21.0397 15.1703C21.0244 13.1246 20.4154 11.5565 19.2467 10.4136C18.0674 9.26436 16.5983 8.67765 14.8247 8.66631C14.6407 8.66513 14.4925 8.51502 14.4937 8.33103Z" fill="white"/>
<path d="M15.9892 18.3737C15.9892 18.3737 16.4596 18.4132 16.7086 18.1009L17.1988 17.4842C17.4359 17.1759 18.0091 16.9822 18.5704 17.2945C18.8827 17.4724 19.444 17.8163 19.7919 18.0732C20.1635 18.346 20.9264 18.9824 20.9264 18.9824C21.2901 19.2868 21.3731 19.7374 21.128 20.2118C21.128 20.2157 21.124 20.2197 21.124 20.2197C20.871 20.6664 20.5311 21.0893 20.1002 21.4807C20.0963 21.4846 20.0963 21.4846 20.0923 21.4886C19.7405 21.7811 19.3926 21.9511 19.0527 21.9906C19.0132 21.9985 18.9618 22.0024 18.9025 21.9985C18.7523 21.9985 18.606 21.9787 18.4598 21.9313L18.4479 21.9155C17.9222 21.7692 17.0486 21.3976 15.5899 20.5952C14.6412 20.0734 13.8546 19.5398 13.1905 19.0101C12.8387 18.7334 12.479 18.4171 12.1113 18.0535C12.0995 18.0416 12.0876 18.0297 12.0758 18.0179C12.0639 18.006 12.0521 17.9942 12.0402 17.9823C12.0283 17.9705 12.0165 17.9586 12.0046 17.9467C11.9928 17.9349 11.9809 17.923 11.969 17.9112C11.6054 17.5435 11.2891 17.1838 11.0124 16.832C10.4827 16.1679 9.94909 15.3773 9.4273 14.4326C8.62486 12.9739 8.25328 12.1003 8.10702 11.5746L8.09121 11.5628C8.04378 11.4165 8.02006 11.2702 8.02401 11.12C8.02006 11.0607 8.02401 11.0093 8.03192 10.9698C8.07145 10.6299 8.24142 10.282 8.53394 9.93019C8.53789 9.92624 8.53789 9.92624 8.54185 9.92228C8.93319 9.49141 9.3522 9.15146 9.80283 8.89847C9.80678 8.89847 9.81074 8.89452 9.81074 8.89452C10.2851 8.64944 10.7357 8.73245 11.0401 9.09612C11.0441 9.10007 11.6765 9.85904 11.9493 10.2306C12.2062 10.5824 12.5541 11.1398 12.728 11.4521C13.0403 12.0134 12.8466 12.5866 12.5383 12.8237L11.9216 13.3139C11.6093 13.5669 11.6489 14.0333 11.6489 14.0333C11.6489 14.0333 12.5659 17.5001 15.9892 18.3737Z" fill="white"/>
</svg>
